<svg xmlns="http://www.w3.org/2000/svg" viewBox="0 0 100 100">
  <defs>
    <linearGradient id="grad" x1="0%" y1="0%" x2="100%" y2="100%">
      <stop offset="0%" style="stop-color:#6076ff;stop-opacity:1" />
      <stop offset="100%" style="stop-color:#21b5ff;stop-opacity:1" />
    </linearGradient>
  </defs>
  
  <!-- 背景圆形 -->
  <circle cx="50" cy="50" r="48" fill="url(#grad)"/>
  
  <!-- 云朵形状（代表云存储/个人空间） -->
  <g transform="translate(50, 50)">
    <!-- 主体云朵 -->
    <path d="M -18 -5 Q -22 -12 -15 -16 Q -10 -22 -2 -18 Q 6 -24 12 -18 Q 20 -16 18 -8 Q 22 -2 18 4 Q 16 10 8 10 L -12 10 Q -20 10 -22 2 Q -24 -2 -18 -5 Z" 
          fill="white" opacity="0.95"/>
    
    <!-- 文件夹图标在云朵中 -->
    <g transform="translate(0, 0) scale(0.4)">
      <path d="M -15 -8 L -8 -8 L -5 -5 L 15 -5 L 15 10 L -15 10 Z" 
            fill="#6076ff" opacity="0.9"/>
      <rect x="-15" y="-2" width="30" height="12" rx="1" 
            fill="#4c63ff" opacity="0.8"/>
    </g>
  </g>
</svg>

